<svg xmlns="http://www.w3.org/2000/svg" xmlns:xlink="http://www.w3.org/1999/xlink" x="0px" y="0px" width="24px" height="24px" viewBox="0 0 24 24"><g stroke-width="2" transform="translate(0, 0)"><path data-cap="butt" data-color="color-2" fill="none" stroke-width="2" stroke-miterlimit="10" d="M2,14.337V9c0-4.418,3.582-8,8-8
	h4c4.418,0,8,3.582,8,8v5.343" stroke-linejoin="round" stroke-linecap="round"></path>
<path fill="none" stroke="currentColor" stroke-width="2" stroke-linecap="round" stroke-miterlimit="10" d="M8,12.212
	C7.523,12.077,7.021,12,6.5,12C3.462,12,1,14.462,1,17.5C1,20.538,3.462,23,6.5,23c0.521,0,1.023-0.077,1.5-0.212V12.212z" stroke-linejoin="round"></path>
<path fill="none" stroke="currentColor" stroke-width="2" stroke-linecap="round" stroke-miterlimit="10" d="M16,22.788
	C16.477,22.923,16.979,23,17.5,23c3.038,0,5.5-2.462,5.5-5.5c0-3.038-2.462-5.5-5.5-5.5c-0.521,0-1.023,0.077-1.5,0.212V22.788z" stroke-linejoin="round"></path></g></svg>