<svg xmlns="http://www.w3.org/2000/svg" xmlns:xlink="http://www.w3.org/1999/xlink" x="0px" y="0px" viewBox="0 0 32 32"><g stroke-width="3" transform="translate(0, 0)"><path data-color="color-2" fill="none" stroke-width="3" stroke-linecap="round" stroke-miterlimit="10" d="M17.4,14.6
	L17.4,14.6c2.3,2.3,2.3,6.1,0,8.5l-3.5,3.5c-2.3,2.3-6.1,2.3-8.5,0l0,0c-2.3-2.3-2.3-6.1,0-8.5l2.8-2.8" stroke-linejoin="round"></path>
<path fill="none" stroke-width="3" stroke-linecap="round" stroke-miterlimit="10" d="M14.6,17.4L14.6,17.4
	c-2.3-2.3-2.3-6.1,0-8.5l3.5-3.5c2.3-2.3,6.1-2.3,8.5,0l0,0c2.3,2.3,2.3,6.1,0,8.5l-2.8,2.8" stroke-linejoin="round"></path></g></svg>