<?xml version="1.0" encoding="UTF-8"?>
<svg width="32px" height="40px" viewBox="0 0 32 40" version="1.1" xmlns="http://www.w3.org/2000/svg" xmlns:xlink="http://www.w3.org/1999/xlink">
    <!-- Generator: Sketch 48.1 (47250) - http://www.bohemiancoding.com/sketch -->
    <title>Sourcerer Logo</title>
    <desc>Created with Sketch.</desc>
    <defs>
        <polygon id="path-1" points="6.50557515 6.8668505 0.0122782746 6.8668505 0.0122782746 0.0647553409 6.50557515 0.0647553409 6.50557515 6.8668505"></polygon>
        <polygon id="path-3" points="0 12.417702 0 0.000470332226 31.9731277 0.000470332226 31.9731277 12.417702 31.9731277 24.8349337 0 24.8349337 0 12.417702"></polygon>
    </defs>
    <g id="Desktop/tablet-home-Copy-3" stroke="none" stroke-width="0" fill="none" fill-rule="evenodd" transform="translate(-160.000000, -15.000000)">
        <g id="Page-1" transform="translate(160.000000, 15.000000)">
            <g>
                <g id="Group-3" transform="translate(5.193228, 33.016852)">
                    <mask id="mask-2" fill="white">
                        <use xlink:href="#path-1"></use>
                    </mask>
                    <g id="Clip-2"></g>
                    <path d="M4.5146214,5.01707148 C4.5146214,5.7882282 4.73023309,6.17371249 5.16173469,6.17371249 C5.59620385,6.17371249 5.81320658,5.7882282 5.81320658,5.01707148 C5.81320658,4.24600883 5.59620385,3.86052454 5.16173469,3.86052454 C4.73023309,3.86052454 4.5146214,4.24600883 4.5146214,5.01707148 M5.16173469,6.86688813 C4.2657174,6.86688813 3.81789423,6.25028258 3.81789423,5.01707148 C3.81789423,3.78414258 4.2657174,3.1673489 5.16173469,3.1673489 C6.05775198,3.1673489 6.50557515,3.78414258 6.50557515,5.01707148 C6.50557515,6.25028258 6.05775198,6.86688813 5.16173469,6.86688813 M0.935560007,6.752033 C0.926286386,6.7368883 0.926286386,6.7200504 0.935560007,6.70151931 L4.86766816,0.174813082 C4.87963113,0.16267851 4.8915941,0.156564191 4.90383528,0.156564191 L5.55094857,0.156564191 C5.56903214,0.156564191 5.58182973,0.164842039 5.5894341,0.181773999 C5.59676026,0.198517826 5.59620385,0.216296384 5.58702296,0.234545274 L1.64128259,6.75673632 C1.62931961,6.76896496 1.61707843,6.77498521 1.60502273,6.77498521 L0.976178469,6.77498521 C0.958094907,6.77498521 0.94455542,6.76745989 0.935560007,6.752033 M0.704646838,1.91457199 C0.704646838,2.6854465 0.921927784,3.07111893 1.35621147,3.07111893 C1.78762033,3.07111893 2.00323202,2.6854465 2.00323202,1.91457199 C2.00323202,1.1433212 1.78762033,0.757742843 1.35621147,0.757742843 C0.921927784,0.757742843 0.704646838,1.1433212 0.704646838,1.91457199 M0.0122782746,1.91457199 C0.0122782746,0.681266823 0.460379654,0.0647553409 1.35621147,0.0647553409 C2.24916846,0.0647553409 2.69560059,0.681266823 2.69560059,1.91457199 C2.69560059,3.15069914 2.24916846,3.76871569 1.35621147,3.76871569 C0.460379654,3.76871569 0.0122782746,3.15069914 0.0122782746,1.91457199" id="Fill-1" fill="currentColor" mask="url(#mask-2)"></path>
                </g>
                <path d="M4.68537659,26.6342461 L4.68537659,25.6450433 C4.68537659,25.6143777 4.7017909,25.5990449 4.73517593,25.5990449 L5.71029721,25.5990449 C5.74052921,25.5990449 5.75564522,25.6143777 5.75564522,25.6450433 L5.75564522,26.6342461 C5.75564522,26.6679219 5.74052921,26.6846657 5.71029721,26.6846657 L4.73517593,26.6846657 C4.7017909,26.6846657 4.68537659,26.6679219 4.68537659,26.6342461 M1.06606768,28.1247289 L1.06606768,27.5128267 C1.06606768,27.4822551 1.08109095,27.4668282 1.11141569,27.4668282 L2.12288956,27.4668282 C2.15293609,27.4668282 2.16823757,27.4500844 2.16823757,27.4162204 L2.16823757,26.7124153 C2.16823757,25.9518881 2.60511786,25.5806078 3.47887846,25.5990449 L4.10021108,25.5990449 C4.13350338,25.5990449 4.1501959,25.6143777 4.1501959,25.6450433 L4.1501959,26.3535518 C4.1501959,26.3842175 4.13350338,26.3995503 4.10021108,26.3995503 L3.48787387,26.3995503 C3.35182985,26.3995503 3.24527594,26.441598 3.16821215,26.5261637 C3.09114835,26.6103532 3.05266283,26.7262431 3.05266283,26.873363 L3.05266283,27.4162204 C3.05266283,27.4500844 3.06768609,27.4668282 3.09801083,27.4668282 L5.61514985,27.4668282 C5.64528912,27.4668282 5.66049786,27.4822551 5.66049786,27.5128267 L5.66049786,32.1868943 C5.66049786,32.217654 5.64528912,32.2329868 5.61514985,32.2329868 L4.82587195,32.2329868 C4.79554721,32.2329868 4.78052394,32.217654 4.78052394,32.1868943 L4.78052394,28.2213351 C4.78052394,28.1876594 4.76540794,28.1707274 4.73517593,28.1707274 L3.09801083,28.1707274 C3.06768609,28.1707274 3.05266283,28.1876594 3.05266283,28.2213351 L3.05266283,32.1868943 C3.05266283,32.217654 3.03736135,32.2329868 3.00722208,32.2329868 L2.21803691,32.2329868 C2.18465188,32.2329868 2.16823757,32.217654 2.16823757,32.1868943 L2.16823757,28.2213351 C2.16823757,28.1876594 2.15293609,28.1707274 2.12288956,28.1707274 L1.11141569,28.1707274 C1.08109095,28.1707274 1.06606768,28.1553946 1.06606768,28.1247289" id="Fill-4" fill="currentColor"></path>
                <path d="M31.8151516,28.9182923 C31.8151516,27.0944379 30.3576165,25.6159956 28.5595541,25.6159956 C26.7614917,25.6159956 25.3039566,27.0944379 25.3039566,28.9182923 C25.3039566,30.7421466 26.7614917,32.2205889 28.5595541,32.2205889 C30.3576165,32.2205889 31.8151516,30.7421466 31.8151516,28.9182923" id="Fill-6" fill="currentColor"></path>
                <path d="M16.2791281,32.8724787 C14.4732758,32.8724787 13.0092492,34.3574117 13.0092492,36.1893557 C13.0092492,38.0210175 14.4732758,39.5060445 16.2791281,39.5060445 C18.0850731,39.5060445 19.5490069,38.0210175 19.5490069,36.1893557 C19.5490069,34.3574117 18.0850731,32.8724787 16.2791281,32.8724787 M16.2791281,33.7060015 C17.6289964,33.7060015 18.7271786,34.8200304 18.7271786,36.1893557 C18.7271786,37.5583987 17.6289964,38.6724276 16.2791281,38.6724276 C14.9292597,38.6724276 13.8310775,37.5583987 13.8310775,36.1893557 C13.8310775,34.8200304 14.9292597,33.7060015 16.2791281,33.7060015" id="Fill-8" fill="currentColor"></path>
                <g id="Group-12" transform="translate(0.000000, 0.093596)">
                    <mask id="mask-4" fill="white">
                        <use xlink:href="#path-3"></use>
                    </mask>
                    <g id="Clip-11"></g>
                    <path d="M2.58984421,17.9694942 C3.18910562,18.517055 3.7585987,18.9790153 4.29841619,19.3562217 C4.83767727,19.7333341 5.54497636,20.0801571 6.42086989,20.3959382 C7.29565058,20.7121896 8.08131178,20.9671096 8.777668,21.1596636 C9.47411695,21.352782 10.3142143,21.5201263 11.2991656,21.6629191 C12.2830041,21.8052416 13.0686653,21.9188739 13.6564274,22.00391 C14.2442823,22.0893223 15.0355076,22.2028605 16.0301962,22.3462178 C16.1680023,22.3668183 16.4912807,22.4135693 17.000217,22.4863768 C17.5087824,22.5594664 17.8845496,22.6136487 18.1274257,22.6488295 C18.3703018,22.6840104 18.7513549,22.7388511 19.2718833,22.8142924 C19.7917625,22.8898278 20.2100956,22.9626352 20.5279026,23.034596 C20.8445967,23.1058043 21.2430842,23.2150155 21.7234578,23.3608185 C22.2031822,23.5070918 22.5808968,23.6584447 22.8569725,23.8162882 C23.1330482,23.9742257 23.4384286,24.1753398 23.7745046,24.4182194 C23.9614608,24.5532988 24.1221727,24.692329 24.2571039,24.8349337 L31.9731277,24.8349337 C31.905894,24.4863235 31.8230805,24.1508825 31.7248729,23.8288931 C30.7890717,20.7674066 28.3068015,18.6532632 24.2770422,17.4869333 C22.7895533,17.0606242 20.0187807,16.5865293 15.9643535,16.0656834 C15.725836,16.0284331 15.3238245,15.9655027 14.7588755,15.8760455 C14.1933701,15.7870586 13.672378,15.7045623 13.1964558,15.6296855 C12.7201626,15.5542442 12.3133288,15.490373 11.97614,15.436567 C11.6382092,15.3833254 11.2540031,15.2888827 10.8233361,15.1516398 C10.3931328,15.0153375 9.90283647,14.8232538 9.35318893,14.5749184 C8.80344866,14.3269593 8.38010785,14.0539784 8.08381565,13.7563522 C7.78641062,13.458726 7.53407539,13.0927134 7.32588259,12.6583146 C7.11824621,12.2240098 7.01410344,11.7463404 7.01410344,11.224836 C7.01410344,9.91063372 7.69117053,8.76932554 9.04632481,7.80100555 C10.4010154,6.83324996 12.3737001,6.3489959 14.9630806,6.3489959 C17.8885372,6.3489959 20.1546393,6.96390826 21.7615724,8.1916635 C23.3674854,9.41998314 24.1714156,11.0800678 24.1714156,13.1721055 C24.1714156,13.4155495 24.2908599,13.536707 24.5314176,13.536707 L30.8618697,13.536707 C31.0531845,13.536707 31.1494447,13.4155495 31.1494447,13.1721055 C31.1494447,10.3259371 30.4237838,7.89403727 28.9734822,5.87499509 C27.5221604,3.85632917 25.5979768,2.3721488 23.2004675,1.42386497 C20.8020308,0.475110801 18.0565752,0.000451518937 14.9630806,0.000451518937 C10.5032107,0.000451518937 6.89373184,1.071398 4.13631329,3.21122149 C1.37843106,5.35198565 0,7.99101977 0,11.1287942 C0,12.1263688 0.11360186,13.0564978 0.341454735,13.9197456 C0.569493082,14.7835578 0.85113296,15.5376885 1.18711626,16.1817614 C1.52272861,16.826681 1.99011912,17.4224978 2.58984421,17.9694942 Z" id="Fill-10" fill="currentColor" mask="url(#mask-4)"></path>
                </g>
                <polygon id="Fill-13" fill="currentColor" points="20.230312 39.4948317 26.7765613 39.4948317 26.7765613 32.8545873 20.230312 32.8545873"></polygon>
            </g>
        </g>
    </g>
</svg>